<?xml version="1.0" encoding="utf-8"?>
<!-- Generator: Adobe Illustrator 16.0.4, SVG Export Plug-In . SVG Version: 6.00 Build 0)  -->
<!DOCTYPE svg PUBLIC "-//W3C//DTD SVG 1.1//EN" "http://www.w3.org/Graphics/SVG/1.1/DTD/svg11.dtd">
<svg version="1.1" id="Capa_1" xmlns="http://www.w3.org/2000/svg" xmlns:xlink="http://www.w3.org/1999/xlink" x="0px" y="0px"
	 width="100px" height="100px" viewBox="0 0 100 100" enable-background="new 0 0 100 100" xml:space="preserve">
<g>
	<path fill="#354952" d="M100,58.103l-4.588,31.181l-9.277-9c-6.434,5.286-12.203,18.775-37.279,19.408
		c-19.913,0-28.225-12.254-35.552-18.172l-8.465,8.215L0,58.83l31.848,4.689l-8.773,8.52c0,0,7.527,12.518,20.525,13.385
		l-0.034-50.88c-7.022-2.441-12.081-8.909-12.081-16.567C31.482,8.221,39.629,0.312,49.682,0.312s18.199,7.91,18.199,17.665
		c0,7.784-5.211,14.312-12.406,16.659c0.048,9.934,0.207,50.982-0.014,50.982c10.781-0.299,20.852-14.861,20.852-14.861
		l-8.208-7.971L100,58.103z M59.07,17.705c0-5.032-4.205-9.112-9.389-9.112c-5.177,0-9.382,4.08-9.382,9.112
		c0,5.024,4.206,9.104,9.382,9.104C54.865,26.81,59.07,22.729,59.07,17.705z"/>
</g>
</svg>
